<?xml version="1.0" encoding="utf-8"?>
<!-- Uploaded to: SVG Repo, www.svgrepo.com, Generator: SVG Repo Mixer Tools -->
<svg width="100px" height="100px" viewBox="0 0 1024 1024" class="icon"  version="1.1" xmlns="http://www.w3.org/2000/svg"><path d="M938.666667 448C938.666667 212.352 747.648 21.333333 512 21.333333S85.333333 212.352 85.333333 448c0 148.906667 76.373333 279.829333 192 356.16V938.666667c0 35.285333 28.714667 64 64 64h341.333334c35.285333 0 64-28.714667 64-64v-134.506667c115.626667-76.330667 192-207.253333 192-356.16z" fill="#E0E0E0" /><path d="M341.333333 384c-58.816 0-106.666667 47.850667-106.666666 106.666667s47.850667 106.666667 106.666666 106.666666 106.666667-47.850667 106.666667-106.666666-47.850667-106.666667-106.666667-106.666667zM682.666667 384c-58.816 0-106.666667 47.850667-106.666667 106.666667s47.850667 106.666667 106.666667 106.666666 106.666667-47.850667 106.666666-106.666666-47.850667-106.666667-106.666666-106.666667zM554.666667 725.333333h-85.333334a21.333333 21.333333 0 0 1-17.749333-33.173333l42.666667-64c7.914667-11.861333 27.584-11.861333 35.498666 0l42.666667 64A21.333333 21.333333 0 0 1 554.666667 725.333333zM746.666667 853.333333h-85.333334v-21.333333a21.333333 21.333333 0 0 0-42.666666 0v21.333333h-85.333334v-21.333333a21.333333 21.333333 0 0 0-42.666666 0v21.333333h-85.333334v-21.333333a21.333333 21.333333 0 0 0-42.666666 0v21.333333h-85.333334v42.666667h85.333334v21.333333a21.333333 21.333333 0 0 0 42.666666 0v-21.333333h85.333334v21.333333a21.333333 21.333333 0 0 0 42.666666 0v-21.333333h85.333334v21.333333a21.333333 21.333333 0 0 0 42.666666 0v-21.333333h85.333334v-42.666667z" fill="#444444" /></svg>