<?xml version="1.0" encoding="utf-8"?>
<!-- Uploaded to: SVG Repo, www.svgrepo.com, Generator: SVG Repo Mixer Tools -->
<svg width="100px" height="100px" viewBox="0 0 1024 1024" class="icon"  version="1.1" xmlns="http://www.w3.org/2000/svg"><path d="M213.333333 362.666667c-82.346667 0-149.333333-66.986667-149.333333-149.333334s66.986667-149.333333 149.333333-149.333333 149.333333 66.986667 149.333334 149.333333-66.986667 149.333333-149.333334 149.333334z" fill="#A67C52" /><path d="M213.333333 213.333333m-85.333333 0a85.333333 85.333333 0 1 0 170.666667 0 85.333333 85.333333 0 1 0-170.666667 0Z" fill="#DDBE99" /><path d="M810.666667 362.666667c-82.346667 0-149.333333-66.986667-149.333334-149.333334s66.986667-149.333333 149.333334-149.333333 149.333333 66.986667 149.333333 149.333333-66.986667 149.333333-149.333333 149.333334z" fill="#A67C52" /><path d="M810.666667 213.333333m-85.333334 0a85.333333 85.333333 0 1 0 170.666667 0 85.333333 85.333333 0 1 0-170.666667 0Z" fill="#DDBE99" /><path d="M512 960C288.490667 960 106.666667 778.176 106.666667 554.666667S288.490667 149.333333 512 149.333333s405.333333 181.824 405.333333 405.333334-181.824 405.333333-405.333333 405.333333z" fill="#A67C52" /><path d="M512 682.666667m-192 0a192 192 0 1 0 384 0 192 192 0 1 0-384 0Z" fill="#DDBE99" /><path d="M512 661.333333a21.333333 21.333333 0 0 1-19.093333-11.797333l-42.666667-85.333333A21.354667 21.354667 0 0 1 469.333333 533.333333h85.333334a21.333333 21.333333 0 0 1 19.093333 30.869334l-42.666667 85.333333A21.333333 21.333333 0 0 1 512 661.333333z" fill="#444444" /><path d="M512 746.666667a21.333333 21.333333 0 0 1-21.333333-21.333334v-85.333333a21.333333 21.333333 0 0 1 42.666666 0v85.333333a21.333333 21.333333 0 0 1-21.333333 21.333334z" fill="#444444" /><path d="M597.333333 746.666667h-170.666666a21.333333 21.333333 0 0 1 0-42.666667h170.666666a21.333333 21.333333 0 0 1 0 42.666667z" fill="#444444" /><path d="M384 405.333333m-42.666667 0a42.666667 42.666667 0 1 0 85.333334 0 42.666667 42.666667 0 1 0-85.333334 0Z" fill="#444444" /><path d="M640 405.333333m-42.666667 0a42.666667 42.666667 0 1 0 85.333334 0 42.666667 42.666667 0 1 0-85.333334 0Z" fill="#444444" /></svg>